<svg preserveAspectRatio="none" width="100%" height="100%" overflow="visible" style="display: block;" viewBox="0 0 32.7555 33.1225" fill="none" xmlns="http://www.w3.org/2000/svg">
<g id="Group 197">
<rect id="Rectangle 4253535" x="13.2582" y="2.57683" width="20" height="26.4" rx="2.4" transform="rotate(14 13.2582 2.57683)" fill="var(--fill-0, #69A2FF)" stroke="var(--stroke-0, white)" stroke-width="1.2"/>
<rect id="Rectangle 4253534" x="7.09023" y="1.12758" width="20" height="26.4" rx="2.4" transform="rotate(7 7.09023 1.12758)" fill="var(--fill-0, #3180FF)" stroke="var(--stroke-0, white)" stroke-width="1.2"/>
<rect id="Rectangle 4253533" x="0.6" y="0.6" width="20" height="26.4" rx="2.4" fill="var(--fill-0, #0062FF)" stroke="var(--stroke-0, white)" stroke-width="1.2"/>
<path id="Union" d="M10.5999 9.6C11.032 11.5964 12.6036 13.168 14.6 13.6001M10.5999 9.6C10.1678 11.5964 8.59634 13.1679 6.6 13.6001M10.5999 9.6V7.6M14.6 13.6001C12.6036 14.0322 11.0321 15.6037 10.5999 17.6M14.6 13.6001H16.6M10.5999 17.6C10.1677 15.6037 8.59626 14.0323 6.6 13.6001M10.5999 17.6V19.6M6.6 13.6001H4.6" stroke="var(--stroke-0, white)" stroke-linecap="round"/>
</g>
</svg>
