<svg preserveAspectRatio="none" width="100%" height="100%" overflow="visible" style="display: block;" viewBox="0 0 30.72 28.8" fill="none" xmlns="http://www.w3.org/2000/svg">
<path id="Vector" d="M12 2.88H18.72C18.984 2.88 19.2 3.096 19.2 3.36V5.76H11.52V3.36C11.52 3.096 11.736 2.88 12 2.88ZM8.64 3.36V5.76H3.84C1.722 5.76 0 7.482 0 9.6V15.36H30.72V9.6C30.72 7.482 28.998 5.76 26.88 5.76H22.08V3.36C22.08 1.506 20.574 0 18.72 0H12C10.146 0 8.64 1.506 8.64 3.36ZM30.72 18.24H19.2V19.2C19.2 20.262 18.342 21.12 17.28 21.12H13.44C12.378 21.12 11.52 20.262 11.52 19.2V18.24H0V24.96C0 27.078 1.722 28.8 3.84 28.8H26.88C28.998 28.8 30.72 27.078 30.72 24.96V18.24Z" fill="var(--fill-0, white)"/>
</svg>
