<svg preserveAspectRatio="none" width="100%" height="100%" overflow="visible" style="display: block;" viewBox="0 0 200 202.05" fill="none" xmlns="http://www.w3.org/2000/svg">
<g id="Grad block icons">
<g id="Vector" filter="url(#filter0_d_0_11)">
<path d="M57.285 69.8929H144.512M69.7503 80.985C64.1456 86.1702 56.6595 89.3351 48.4337 89.3351C31.0737 89.3351 17 75.2275 17 57.8255C17 40.4236 31.0737 26.316 48.4337 26.316C65.7937 26.316 79.5646 40.1251 79.8625 57.2682M183 15H153.041L118.663 49.4605M113.446 186.516L130.9 192H72.282L89.7463 186.516C94.1893 185.123 97.6246 180.993 101.596 176.33V105.388L43.0574 57.2782H160.14L101.601 105.379V176.33C105.572 180.998 109.008 185.123 113.451 186.516H113.446Z" stroke="var(--stroke-0, white)" stroke-width="2.5" stroke-linecap="round" stroke-linejoin="round"/>
</g>
</g>
<defs>
<filter id="filter0_d_0_11" x="6.95" y="4.95" width="186.1" height="197.1" filterUnits="userSpaceOnUse" color-interpolation-filters="sRGB">
<feFlood flood-opacity="0" result="BackgroundImageFix"/>
<feColorMatrix in="SourceAlpha" type="matrix" values="0 0 0 0 0 0 0 0 0 0 0 0 0 0 0 0 0 0 127 0" result="hardAlpha"/>
<feOffset/>
<feGaussianBlur stdDeviation="4.4"/>
<feColorMatrix type="matrix" values="0 0 0 0 0.990712 0 0 0 0 0.408652 0 0 0 0 0.117622 0 0 0 1 0"/>
<feBlend mode="normal" in2="BackgroundImageFix" result="effect1_dropShadow_0_11"/>
<feBlend mode="normal" in="SourceGraphic" in2="effect1_dropShadow_0_11" result="shape"/>
</filter>
</defs>
</svg>
